<?xml version="1.0" encoding="UTF-8"?>
<svg version="1.1" xmlns="http://www.w3.org/2000/svg" width="500" height="500">
<path d="M0 0 C165 0 330 0 500 0 C500 165 500 330 500 500 C335 500 170 500 0 500 C0 335 0 170 0 0 Z " fill="#FEFEFD" transform="translate(0,0)"/>
<path d="M0 0 C0.66 0.99 1.32 1.98 2 3 C2.66 2.34 3.32 1.68 4 1 C6.59324953 6.18649906 3.69189815 13.58309914 1.98144531 18.78637695 C1.58844238 19.94399536 1.58844238 19.94399536 1.1875 21.125 C-1.16899042 28.301263 -3.27228222 35.48310538 -5.140625 42.80078125 C-5.97731078 45.91553422 -6.94857643 48.95179395 -8 52 C-8.66 52 -9.32 52 -10 52 C-10 53.32 -10 54.64 -10 56 C-10.31151288 58.33634657 -10.64159778 60.67038557 -11 63 C-11.66 63 -12.32 63 -13 63 C-13.66 61.35 -14.32 59.7 -15 58 C-15.99 58.495 -15.99 58.495 -17 59 C-14.47600635 44.77385399 -10.03896619 30.98053886 -5.8125 17.1875 C-5.46751465 16.06021484 -5.1225293 14.93292969 -4.76708984 13.77148438 C-4.43789551 12.70607422 -4.10870117 11.64066406 -3.76953125 10.54296875 C-3.47667236 9.59446045 -3.18381348 8.64595215 -2.88208008 7.66870117 C-2.02106863 5.06374236 -1.04702976 2.53523183 0 0 Z " fill="#F7F6F4" transform="translate(299,149)"/>
<path d="M0 0 C0.79664062 0.00257813 1.59328125 0.00515625 2.4140625 0.0078125 C3.20554687 0.00523437 3.99703125 0.00265625 4.8125 0 C7.0390625 0.1328125 7.0390625 0.1328125 10.0390625 1.1328125 C11.3515625 2.8828125 11.3515625 2.8828125 12.0390625 5.1328125 C11.2265625 7.5078125 11.2265625 7.5078125 10.0390625 10.1328125 C10.0184375 11.1434375 9.9978125 12.1540625 9.9765625 13.1953125 C9.0390625 16.1328125 9.0390625 16.1328125 7.08203125 17.4375 C0.79271428 20.38402976 0.79271428 20.38402976 -2.9609375 19.1328125 C-2.98777737 16.15358657 -3.00769787 13.17459955 -3.0234375 10.1953125 C-3.03181641 9.34517578 -3.04019531 8.49503906 -3.04882812 7.61914062 C-3.05205078 6.81025391 -3.05527344 6.00136719 -3.05859375 5.16796875 C-3.06383057 4.419104 -3.06906738 3.67023926 -3.07446289 2.89868164 C-2.91136586 0.36173357 -2.52602124 0.1710851 0 0 Z " fill="#F6F6F4" transform="translate(90.9609375,239.8671875)"/>
<path d="M0 0 C0.33 0.66 0.66 1.32 1 2 C1.99 2.33 2.98 2.66 4 3 C4 3.99 4 4.98 4 6 C4.66 6 5.32 6 6 6 C6 6.66 6 7.32 6 8 C6.66 8 7.32 8 8 8 C8.33 8.66 8.66 9.32 9 10 C9.33 7.03 9.66 4.06 10 1 C11.32 0.67 12.64 0.34 14 0 C14 6.27 14 12.54 14 19 C13.67 18.01 13.34 17.02 13 16 C11.02 16 9.04 16 7 16 C7 15.34 7 14.68 7 14 C6.34 14 5.68 14 5 14 C5 13.01 5 12.02 5 11 C5.66 11 6.32 11 7 11 C7 10.34 7 9.68 7 9 C5.35 9.33 3.7 9.66 2 10 C1.67 12.64 1.34 15.28 1 18 C0.34 16.68 -0.32 15.36 -1 14 C-1.66 15.32 -2.32 16.64 -3 18 C-3 12.72 -3 7.44 -3 2 C-2.01 2.495 -2.01 2.495 -1 3 C-0.67 2.01 -0.34 1.02 0 0 Z " fill="#F0EFED" transform="translate(140,240)"/>
<path d="M0 0 C0.66 0.33 1.32 0.66 2 1 C1.67 1.99 1.34 2.98 1 4 C-1.31 4.33 -3.62 4.66 -6 5 C-5.67 6.65 -5.34 8.3 -5 10 C-4.01 10.33 -3.02 10.66 -2 11 C-2 10.34 -2 9.68 -2 9 C-1.01 9 -0.02 9 1 9 C2.25703929 12.77111786 2.25703929 15.22888214 1 19 C-1.31 19.33 -3.62 19.66 -6 20 C-4.68 19.67 -3.36 19.34 -2 19 C-2 18.34 -2 17.68 -2 17 C-1.67 16.67 -1.34 16.34 -1 16 C-1.40929986 13.94603274 -1.40929986 13.94603274 -2 12 C-2.928125 11.896875 -3.85625 11.79375 -4.8125 11.6875 C-8 11 -8 11 -9.875 9.8125 C-11.49664405 7.19985125 -11.20031953 5.00479298 -11 2 C-7.36178302 -0.32845886 -4.23971058 -0.23553948 0 0 Z " fill="#F2F2F2" transform="translate(470,240)"/>
<path d="M0 0 C0.33 1.32 0.66 2.64 1 4 C-1.97 4 -4.94 4 -8 4 C-7.814375 4.680625 -7.62875 5.36125 -7.4375 6.0625 C-6.91476057 9.57232191 -7.38621423 12.52188063 -8 16 C-5.36 16 -2.72 16 0 16 C0.33 16.99 0.66 17.98 1 19 C0 20 0 20 -3.0625 20.0625 C-4.031875 20.041875 -5.00125 20.02125 -6 20 C-6 19.34 -6 18.68 -6 18 C-7.32 17.34 -8.64 16.68 -10 16 C-10.13496251 13.89758397 -10.23197307 11.7927039 -10.3125 9.6875 C-10.37050781 8.51574219 -10.42851562 7.34398437 -10.48828125 6.13671875 C-10 3 -10 3 -7.65625 1.09375 C-4.86608485 -0.05514153 -2.98441187 -0.25580673 0 0 Z " fill="#F3F2F1" transform="translate(182,240)"/>
<path d="M0 0 C4.29 0 8.58 0 13 0 C13.33 1.32 13.66 2.64 14 4 C12.35 4 10.7 4 9 4 C9 4.99 9 5.98 9 7 C8.34 7 7.68 7 7 7 C7 6.01 7 5.02 7 4 C6.04972401 6.85082796 5.70808784 9.21103374 5.4375 12.1875 C5.35371094 13.08855469 5.26992187 13.98960937 5.18359375 14.91796875 C5.12300781 15.60503906 5.06242188 16.29210937 5 17 C4.67 17 4.34 17 4 17 C4 12.71 4 8.42 4 4 C2.35 4 0.7 4 -1 4 C-0.67 2.68 -0.34 1.36 0 0 Z " fill="#F1EFF0" transform="translate(197,240)"/>
<path d="M0 0 C2.31 0 4.62 0 7 0 C7 0.66 7 1.32 7 2 C7.66 2.33 8.32 2.66 9 3 C8.649375 3.61875 8.29875 4.2375 7.9375 4.875 C7.628125 5.57625 7.31875 6.2775 7 7 C7.33 7.66 7.66 8.32 8 9 C5.29120665 10.35439668 2.99066732 10.06501451 0 10 C-1 5.25 -1 5.25 -1 3 C-0.34 2.67 0.32 2.34 1 2 C0.67 1.34 0.34 0.68 0 0 Z " fill="#F9F8F6" transform="translate(408,243)"/>
<path d="M0 0 C1.32 0 2.64 0 4 0 C4.125 3.375 4.125 3.375 4 7 C3.34 7.66 2.68 8.32 2 9 C1.60235737 10.98821313 1.26224651 12.98944339 1 15 C-0.65 15.33 -2.3 15.66 -4 16 C-4 15.01 -4 14.02 -4 13 C-4.66 13 -5.32 13 -6 13 C-6.33 11.68 -6.66 10.36 -7 9 C-6.34 9 -5.68 9 -5 9 C-5.33 8.34 -5.66 7.68 -6 7 C-2.125 8.75 -2.125 8.75 -1 11 C-0.67 7.37 -0.34 3.74 0 0 Z " fill="#F2F1EF" transform="translate(328,240)"/>
<path d="M0 0 C2.97 0 5.94 0 9 0 C9 0.33 9 0.66 9 1 C6.36 1 3.72 1 1 1 C1 2.32 1 3.64 1 5 C3.64 5 6.28 5 9 5 C7.68 5.33 6.36 5.66 5 6 C5 6.99 5 7.98 5 9 C4.01 9 3.02 9 2 9 C2 10.32 2 11.64 2 13 C4.64 13 7.28 13 10 13 C8.02 13.99 8.02 13.99 6 15 C6.33 15.66 6.66 16.32 7 17 C5.02 17 3.04 17 1 17 C1.33 16.34 1.66 15.68 2 15 C1.34 14.67 0.68 14.34 0 14 C0 9.38 0 4.76 0 0 Z " fill="#ECECEB" transform="translate(379,243)"/>
<path d="M0 0 C0.99 0 1.98 0 3 0 C3.33 0.99 3.66 1.98 4 3 C3.34 3 2.68 3 2 3 C2.33 8.28 2.66 13.56 3 19 C1.68 19 0.36 19 -1 19 C-1.02683987 16.02077407 -1.04676037 13.04178705 -1.0625 10.0625 C-1.07087891 9.21236328 -1.07925781 8.36222656 -1.08789062 7.48632812 C-1.09111328 6.67744141 -1.09433594 5.86855469 -1.09765625 5.03515625 C-1.10289307 4.2862915 -1.10812988 3.53742676 -1.11352539 2.76586914 C-1 1 -1 1 0 0 Z " fill="#F5F5F4" transform="translate(377,240)"/>
<path d="M0 0 C0.33 0 0.66 0 1 0 C1 1.65 1 3.3 1 5 C1.99 4.67 2.98 4.34 4 4 C3.74327938 7.7652358 3.40674134 9.55839511 0.8125 12.375 C-2.41971069 14.24249951 -4.32823991 14.34155908 -8 14 C-7.01 13.34 -6.02 12.68 -5 12 C-5.99 11.34 -6.98 10.68 -8 10 C-7.030625 9.690625 -6.06125 9.38125 -5.0625 9.0625 C-2.15934208 8.30476658 -2.15934208 8.30476658 -1 7 C-0.63239269 4.67182036 -0.29758419 2.3381615 0 0 Z " fill="#F1F1F0" transform="translate(296,246)"/>
<path d="M0 0 C1.98 0.66 3.96 1.32 6 2 C6.33 3.98 6.66 5.96 7 8 C6.01 8 5.02 8 4 8 C3.01 8.495 3.01 8.495 2 9 C0 10 0 10 -3 10 C-2.6875 8.0625 -2.6875 8.0625 -2 6 C-1.01 5.67 -0.02 5.34 1 5 C0.67 3.35 0.34 1.7 0 0 Z " fill="#F6F6F4" transform="translate(65,246)"/>
<path d="M0 0 C2.64 0.33 5.28 0.66 8 1 C8 1.66 8 2.32 8 3 C8.66 3.33 9.32 3.66 10 4 C8.10871658 5.89128342 5.42932274 5.2366852 2.91015625 5.328125 C1.96462891 5.16570312 1.96462891 5.16570312 1 5 C0.34 4.01 -0.32 3.02 -1 2 C-0.67 1.34 -0.34 0.68 0 0 Z " fill="#F2F2F2" transform="translate(258,255)"/>
<path d="M0 0 C1.258125 -0.020625 2.51625 -0.04125 3.8125 -0.0625 C4.52019531 -0.07410156 5.22789063 -0.08570313 5.95703125 -0.09765625 C8 0 8 0 11 1 C12.1875 3.0625 12.1875 3.0625 13 5 C11.35 5.33 9.7 5.66 8 6 C8 5.34 8 4.68 8 4 C6.02 4 4.04 4 2 4 C2.99 3.34 3.98 2.68 5 2 C3.35 1.67 1.7 1.34 0 1 C0 0.67 0 0.34 0 0 Z " fill="#F1F1F0" transform="translate(90,240)"/>
<path d="M0 0 C1.98 0 3.96 0 6 0 C6 1.32 6 2.64 6 4 C4.35 4 2.7 4 1 4 C1 8.29 1 12.58 1 17 C0.67 17 0.34 17 0 17 C0 11.39 0 5.78 0 0 Z " fill="#ECEBE9" transform="translate(440,240)"/>
<path d="M0 0 C-1.98 0.99 -1.98 0.99 -4 2 C-1.69 2.33 0.62 2.66 3 3 C3 3.99 3 4.98 3 6 C2.34 6 1.68 6 1 6 C1 5.34 1 4.68 1 4 C-2.3 4.33 -5.6 4.66 -9 5 C-9 4.01 -9 3.02 -9 2 C-5.5647952 -0.29013653 -4.014669 -0.17842973 0 0 Z " fill="#F1F1F0" transform="translate(293,240)"/>
<path d="M0 0 C0.66 0.66 1.32 1.32 2 2 C1.34 2 0.68 2 0 2 C0 4.31 0 6.62 0 9 C-0.66 9 -1.32 9 -2 9 C-2.33 10.32 -2.66 11.64 -3 13 C-3.33 13 -3.66 13 -4 13 C-4 9.04 -4 5.08 -4 1 C-3.34 1 -2.68 1 -2 1 C-2 2.32 -2 3.64 -2 5 C-1.34 3.35 -0.68 1.7 0 0 Z " fill="#F3F2F0" transform="translate(319,247)"/>
<path d="M0 0 C0.33 0 0.66 0 1 0 C0.47606294 5.86809507 -0.76108858 10.54873741 -3 16 C-3.33 16 -3.66 16 -4 16 C-3.39891424 10.34979382 -1.92471317 5.33835539 0 0 Z " fill="#F2F1EE" transform="translate(287,189)"/>
<path d="M0 0 C0.66 0.66 1.32 1.32 2 2 C1.96712417 4.72869407 1.43602229 7.2966618 1 10 C-0.32 10 -1.64 10 -3 10 C-2.49287967 6.28111761 -1.88391785 3.26545761 0 0 Z " fill="#F4F4F4" transform="translate(59,250)"/>
<path d="M0 0 C1.32 0 2.64 0 4 0 C4.1875 3.375 4.1875 3.375 4 7 C3.01 7.66 2.02 8.32 1 9 C0.67 6.03 0.34 3.06 0 0 Z " fill="#F8F7F5" transform="translate(328,240)"/>
<path d="M0 0 C0.66 0.66 1.32 1.32 2 2 C1.74739753 5.78903708 -0.27849443 7.54186593 -3 10 C-3.33 8.02 -3.66 6.04 -4 4 C-3.01 4.495 -3.01 4.495 -2 5 C-1.34 3.35 -0.68 1.7 0 0 Z " fill="#F4F3EE" transform="translate(261,286)"/>
<path d="M0 0 C2.64 0 5.28 0 8 0 C8.33 0.99 8.66 1.98 9 3 C8 4 8 4 4.9375 4.0625 C3.968125 4.041875 2.99875 4.02125 2 4 C2 3.34 2 2.68 2 2 C1.34 1.34 0.68 0.68 0 0 Z " fill="#EDEDED" transform="translate(174,256)"/>
<path d="M0 0 C0.66 0 1.32 0 2 0 C1.88601335 1.62580966 1.75844341 3.25067157 1.625 4.875 C1.52058594 6.23238281 1.52058594 6.23238281 1.4140625 7.6171875 C1 10 1 10 -1 12 C-0.67 10.02 -0.34 8.04 0 6 C-0.66 6 -1.32 6 -2 6 C-1.34 4.02 -0.68 2.04 0 0 Z " fill="#F0F0F0" transform="translate(63,240)"/>
<path d="M0 0 C1.65 0 3.3 0 5 0 C5 0.99 5 1.98 5 3 C3.02 3.33 1.04 3.66 -1 4 C-0.67 2.68 -0.34 1.36 0 0 Z " fill="#FEFEFD" transform="translate(94,252)"/>
<path d="M0 0 C2.97 0.495 2.97 0.495 6 1 C5.67 1.99 5.34 2.98 5 4 C2.69 3.67 0.38 3.34 -2 3 C-1.34 2.01 -0.68 1.02 0 0 Z " fill="#F7F7F7" transform="translate(466,240)"/>
<path d="M0 0 C2.92879371 0.62759865 5.36095629 1.58622659 8 3 C4.8035914 4.06546953 2.34252724 4.07427838 -1 4 C-0.67 2.68 -0.34 1.36 0 0 Z " fill="#F8F5F6" transform="translate(197,240)"/>
<path d="M0 0 C2.99332739 0.9977758 3.94766315 1.7522025 6 4 C3.36 4.33 0.72 4.66 -2 5 C-2 3.68 -2 2.36 -2 1 C-1.34 0.67 -0.68 0.34 0 0 Z " fill="#EDEDED" transform="translate(34,240)"/>
<path d="M0 0 C1.98 0.66 3.96 1.32 6 2 C6 2.66 6 3.32 6 4 C5.01 4 4.02 4 3 4 C2.67 4.99 2.34 5.98 2 7 C1.34 4.69 0.68 2.38 0 0 Z " fill="#F0EFED" transform="translate(65,246)"/>
<path d="M0 0 C0.625 1.875 0.625 1.875 1 4 C-1 6 -1 6 -4.125 6.125 C-5.548125 6.063125 -5.548125 6.063125 -7 6 C-7 5.67 -7 5.34 -7 5 C-5.35 5 -3.7 5 -2 5 C-2 4.34 -2 3.68 -2 3 C-2.66 2.67 -3.32 2.34 -4 2 C-2.68 1.34 -1.36 0.68 0 0 Z " fill="#ECEBE9" transform="translate(415,247)"/>
<path d="M0 0 C1.98 0 3.96 0 6 0 C5.67 1.32 5.34 2.64 5 4 C2.525 3.01 2.525 3.01 0 2 C0 1.34 0 0.68 0 0 Z " fill="#F5F4F2" transform="translate(440,240)"/>
</svg>
